<svg width="370" height="140" viewBox="0 0 370 140" fill="none" xmlns="http://www.w3.org/2000/svg">
<rect width="370" height="140" rx="10" fill="#4E4B4B"/>
<path d="M15.6958 129.239V124.959H15.6821L14.3765 125.869V125.25L15.689 124.307H16.2905V129.239H15.6958ZM19.1001 124.307L17.709 130.435H17.1416L18.5327 124.307H19.1001ZM21.2158 129.321C20.0811 129.321 19.4077 128.34 19.4077 126.774V126.768C19.4077 125.202 20.0811 124.225 21.2158 124.225C22.3506 124.225 23.0308 125.202 23.0308 126.768V126.774C23.0308 128.34 22.3506 129.321 21.2158 129.321ZM21.2158 128.784C21.9678 128.784 22.4121 128.012 22.4121 126.774V126.768C22.4121 125.53 21.9678 124.765 21.2158 124.765C20.4639 124.765 20.0264 125.53 20.0264 126.768V126.774C20.0264 128.012 20.4639 128.784 21.2158 128.784ZM25.437 129.321C24.4937 129.321 23.8203 128.733 23.7485 127.93L23.7451 127.892H24.3501L24.3535 127.919C24.415 128.408 24.8525 128.781 25.4438 128.781C26.1138 128.781 26.5786 128.316 26.5786 127.653V127.646C26.5752 126.997 26.1069 126.532 25.4541 126.532C25.1191 126.532 24.832 126.631 24.6133 126.829C24.5244 126.911 24.4458 127.007 24.3809 127.12H23.8374L24.0903 124.307H26.9136V124.854H24.5962L24.4287 126.511H24.4424C24.6748 126.18 25.085 126.002 25.5635 126.002C26.5103 126.002 27.1938 126.689 27.1938 127.636V127.643C27.1904 128.63 26.4624 129.321 25.437 129.321Z" fill="#818181"/>
<path d="M89.3345 129.321C88.2886 129.321 87.5435 128.733 87.5435 127.906V127.899C87.5435 127.291 87.9707 126.785 88.603 126.638V126.624C88.063 126.457 87.7212 126.046 87.7212 125.527V125.52C87.7212 124.775 88.4014 124.225 89.3345 124.225C90.2676 124.225 90.9478 124.775 90.9478 125.52V125.527C90.9478 126.046 90.606 126.457 90.0659 126.624V126.638C90.6982 126.785 91.1255 127.291 91.1255 127.899V127.906C91.1255 128.733 90.3804 129.321 89.3345 129.321ZM89.3345 126.395C89.9292 126.395 90.3359 126.057 90.3359 125.578V125.571C90.3359 125.093 89.9292 124.754 89.3345 124.754C88.7397 124.754 88.333 125.093 88.333 125.571V125.578C88.333 126.057 88.7397 126.395 89.3345 126.395ZM89.3345 128.784C90.0146 128.784 90.5 128.401 90.5 127.868V127.861C90.5 127.321 90.0181 126.935 89.3345 126.935C88.6509 126.935 88.1689 127.321 88.1689 127.861V127.868C88.1689 128.401 88.6543 128.784 89.3345 128.784ZM93.3916 124.307L92.0005 130.435H91.4331L92.8242 124.307H93.3916ZM95.5073 129.321C94.3726 129.321 93.6992 128.34 93.6992 126.774V126.768C93.6992 125.202 94.3726 124.225 95.5073 124.225C96.6421 124.225 97.3223 125.202 97.3223 126.768V126.774C97.3223 128.34 96.6421 129.321 95.5073 129.321ZM95.5073 128.784C96.2593 128.784 96.7036 128.012 96.7036 126.774V126.768C96.7036 125.53 96.2593 124.765 95.5073 124.765C94.7554 124.765 94.3179 125.53 94.3179 126.768V126.774C94.3179 128.012 94.7554 128.784 95.5073 128.784ZM99.7285 129.321C98.7852 129.321 98.1118 128.733 98.04 127.93L98.0366 127.892H98.6416L98.645 127.919C98.7065 128.408 99.144 128.781 99.7354 128.781C100.405 128.781 100.87 128.316 100.87 127.653V127.646C100.867 126.997 100.398 126.532 99.7456 126.532C99.4106 126.532 99.1235 126.631 98.9048 126.829C98.8159 126.911 98.7373 127.007 98.6724 127.12H98.1289L98.3818 124.307H101.205V124.854H98.8877L98.7202 126.511H98.7339C98.9663 126.18 99.3765 126.002 99.855 126.002C100.802 126.002 101.485 126.689 101.485 127.636V127.643C101.482 128.63 100.754 129.321 99.7285 129.321Z" fill="#818181"/>
<path d="M163.094 129.239V124.959H163.081L161.775 125.869V125.25L163.087 124.307H163.689V129.239H163.094ZM166.635 129.321C165.692 129.321 165.019 128.733 164.947 127.93L164.943 127.892H165.548L165.552 127.919C165.613 128.408 166.051 128.781 166.642 128.781C167.312 128.781 167.777 128.316 167.777 127.653V127.646C167.773 126.997 167.305 126.532 166.652 126.532C166.317 126.532 166.03 126.631 165.812 126.829C165.723 126.911 165.644 127.007 165.579 127.12H165.036L165.289 124.307H168.112V124.854H165.794L165.627 126.511H165.641C165.873 126.18 166.283 126.002 166.762 126.002C167.708 126.002 168.392 126.689 168.392 127.636V127.643C168.389 128.63 167.661 129.321 166.635 129.321ZM170.593 124.307L169.202 130.435H168.635L170.026 124.307H170.593ZM172.709 129.321C171.574 129.321 170.901 128.34 170.901 126.774V126.768C170.901 125.202 171.574 124.225 172.709 124.225C173.844 124.225 174.524 125.202 174.524 126.768V126.774C174.524 128.34 173.844 129.321 172.709 129.321ZM172.709 128.784C173.461 128.784 173.905 128.012 173.905 126.774V126.768C173.905 125.53 173.461 124.765 172.709 124.765C171.957 124.765 171.52 125.53 171.52 126.768V126.774C171.52 128.012 171.957 128.784 172.709 128.784ZM176.93 129.321C175.987 129.321 175.313 128.733 175.242 127.93L175.238 127.892H175.843L175.847 127.919C175.908 128.408 176.346 128.781 176.937 128.781C177.607 128.781 178.072 128.316 178.072 127.653V127.646C178.068 126.997 177.6 126.532 176.947 126.532C176.612 126.532 176.325 126.631 176.106 126.829C176.018 126.911 175.939 127.007 175.874 127.12H175.331L175.583 124.307H178.407V124.854H176.089L175.922 126.511H175.936C176.168 126.18 176.578 126.002 177.057 126.002C178.003 126.002 178.687 126.689 178.687 127.636V127.643C178.684 128.63 177.956 129.321 176.93 129.321Z" fill="#818181"/>
<path d="M239.045 129.239V128.815L240.781 127.003C241.448 126.31 241.602 126.043 241.602 125.633V125.626C241.598 125.124 241.219 124.761 240.682 124.761C240.067 124.761 239.609 125.185 239.609 125.715V125.732H239.014V125.711C239.014 124.857 239.752 124.225 240.672 124.225C241.564 124.225 242.217 124.823 242.217 125.595V125.602C242.217 126.142 241.967 126.549 241.062 127.475L239.889 128.678V128.692H242.299V129.239H239.045ZM243.01 129.239V128.815L244.746 127.003C245.413 126.31 245.566 126.043 245.566 125.633V125.626C245.563 125.124 245.184 124.761 244.647 124.761C244.032 124.761 243.574 125.185 243.574 125.715V125.732H242.979V125.711C242.979 124.857 243.717 124.225 244.637 124.225C245.529 124.225 246.182 124.823 246.182 125.595V125.602C246.182 126.142 245.932 126.549 245.026 127.475L243.854 128.678V128.692H246.264V129.239H243.01ZM248.533 124.307L247.142 130.435H246.575L247.966 124.307H248.533ZM250.649 129.321C249.514 129.321 248.841 128.34 248.841 126.774V126.768C248.841 125.202 249.514 124.225 250.649 124.225C251.784 124.225 252.464 125.202 252.464 126.768V126.774C252.464 128.34 251.784 129.321 250.649 129.321ZM250.649 128.784C251.401 128.784 251.845 128.012 251.845 126.774V126.768C251.845 125.53 251.401 124.765 250.649 124.765C249.897 124.765 249.459 125.53 249.459 126.768V126.774C249.459 128.012 249.897 128.784 250.649 128.784ZM254.87 129.321C253.927 129.321 253.253 128.733 253.182 127.93L253.178 127.892H253.783L253.787 127.919C253.848 128.408 254.286 128.781 254.877 128.781C255.547 128.781 256.012 128.316 256.012 127.653V127.646C256.008 126.997 255.54 126.532 254.887 126.532C254.552 126.532 254.265 126.631 254.046 126.829C253.958 126.911 253.879 127.007 253.814 127.12H253.271L253.523 124.307H256.347V124.854H254.029L253.862 126.511H253.875C254.108 126.18 254.518 126.002 254.997 126.002C255.943 126.002 256.627 126.689 256.627 127.636V127.643C256.624 128.63 255.896 129.321 254.87 129.321Z" fill="#818181"/>
<path d="M317.256 129.239V128.815L318.993 127.003C319.659 126.31 319.813 126.043 319.813 125.633V125.626C319.81 125.124 319.43 124.761 318.894 124.761C318.278 124.761 317.82 125.185 317.82 125.715V125.732H317.226V125.711C317.226 124.857 317.964 124.225 318.883 124.225C319.775 124.225 320.428 124.823 320.428 125.595V125.602C320.428 126.142 320.179 126.549 319.273 127.475L318.101 128.678V128.692H320.51V129.239H317.256ZM322.958 124.225C323.867 124.225 324.831 124.854 324.831 126.682V126.689C324.831 128.35 324.123 129.321 322.917 129.321C322.079 129.321 321.454 128.842 321.29 128.125L321.279 128.08H321.905L321.918 128.118C322.065 128.524 322.417 128.777 322.923 128.777C323.843 128.777 324.205 127.885 324.232 126.85C324.236 126.815 324.236 126.781 324.236 126.744H324.222C324.024 127.181 323.518 127.537 322.848 127.537C321.908 127.537 321.211 126.843 321.211 125.906V125.899C321.211 124.929 321.949 124.225 322.958 124.225ZM322.954 126.997C323.6 126.997 324.089 126.539 324.089 125.91V125.906C324.089 125.274 323.597 124.771 322.964 124.771C322.335 124.771 321.836 125.264 321.836 125.886V125.893C321.836 126.535 322.305 126.997 322.954 126.997ZM327.1 124.307L325.709 130.435H325.142L326.533 124.307H327.1ZM329.216 129.321C328.081 129.321 327.408 128.34 327.408 126.774V126.768C327.408 125.202 328.081 124.225 329.216 124.225C330.351 124.225 331.031 125.202 331.031 126.768V126.774C331.031 128.34 330.351 129.321 329.216 129.321ZM329.216 128.784C329.968 128.784 330.412 128.012 330.412 126.774V126.768C330.412 125.53 329.968 124.765 329.216 124.765C328.464 124.765 328.026 125.53 328.026 126.768V126.774C328.026 128.012 328.464 128.784 329.216 128.784ZM333.437 129.321C332.494 129.321 331.82 128.733 331.749 127.93L331.745 127.892H332.35L332.354 127.919C332.415 128.408 332.853 128.781 333.444 128.781C334.114 128.781 334.579 128.316 334.579 127.653V127.646C334.575 126.997 334.107 126.532 333.454 126.532C333.119 126.532 332.832 126.631 332.613 126.829C332.524 126.911 332.446 127.007 332.381 127.12H331.837L332.09 124.307H334.914V124.854H332.596L332.429 126.511H332.442C332.675 126.18 333.085 126.002 333.563 126.002C334.51 126.002 335.194 126.689 335.194 127.636V127.643C335.19 128.63 334.462 129.321 333.437 129.321Z" fill="#818181"/>
<path d="M345.837 50.3314V49.7538C345.027 49.682 344.384 49.1967 344.33 48.4344L344.326 48.3866H344.921L344.928 48.4276C344.996 48.8207 345.249 49.1522 345.837 49.2172V47.5731L345.758 47.5526C344.907 47.3475 344.449 46.9681 344.449 46.2914V46.288C344.449 45.5565 345.03 45.0609 345.837 44.9857V44.4081H346.247V44.9823C347.033 45.0541 347.625 45.5565 347.672 46.2743L347.676 46.3256H347.081L347.078 46.2948C347.03 45.8641 346.708 45.5804 346.247 45.5223V47.0912L346.353 47.1151C347.231 47.327 347.724 47.6893 347.724 48.4105V48.4139C347.724 49.2343 347.05 49.6957 346.247 49.7572V50.3314H345.837ZM345.044 46.2606C345.044 46.5956 345.252 46.8485 345.837 46.9921V45.5223C345.317 45.5941 345.044 45.9257 345.044 46.2572V46.2606ZM346.268 47.6757L346.247 47.6722V49.224C346.883 49.1727 347.129 48.848 347.129 48.4515V48.4481C347.129 48.0756 346.941 47.8397 346.268 47.6757ZM348.561 49.8358V49.412L350.297 47.6005C350.964 46.9066 351.118 46.64 351.118 46.2299V46.223C351.114 45.7206 350.735 45.3583 350.198 45.3583C349.583 45.3583 349.125 45.7821 349.125 46.3119V46.329H348.53V46.3085C348.53 45.454 349.269 44.8217 350.188 44.8217C351.08 44.8217 351.733 45.4198 351.733 46.1923V46.1991C351.733 46.7391 351.483 47.1459 350.578 48.0721L349.405 49.2753V49.2889H351.815V49.8358H348.561ZM354.245 49.9178C353.11 49.9178 352.437 48.9369 352.437 47.3715V47.3646C352.437 45.7992 353.11 44.8217 354.245 44.8217C355.38 44.8217 356.06 45.7992 356.06 47.3646V47.3715C356.06 48.9369 355.38 49.9178 354.245 49.9178ZM354.245 49.3812C354.997 49.3812 355.441 48.6088 355.441 47.3715V47.3646C355.441 46.1273 354.997 45.3617 354.245 45.3617C353.493 45.3617 353.056 46.1273 353.056 47.3646V47.3715C353.056 48.6088 353.493 49.3812 354.245 49.3812ZM356.805 49.8358V44.9037H357.4V47.85H357.414L358.972 46.2811H359.693L358.152 47.8158L359.741 49.8358H359.051L357.731 48.1781L357.4 48.496V49.8358H356.805Z" fill="#818181"/>
<path d="M345.837 67.0479V66.4702C345.027 66.3984 344.384 65.9131 344.33 65.1509L344.326 65.103H344.921L344.928 65.144C344.996 65.5371 345.249 65.8687 345.837 65.9336V64.2896L345.758 64.269C344.907 64.064 344.449 63.6846 344.449 63.0078V63.0044C344.449 62.2729 345.03 61.7773 345.837 61.7021V61.1245H346.247V61.6987C347.033 61.7705 347.625 62.2729 347.672 62.9907L347.676 63.042H347.081L347.078 63.0112C347.03 62.5806 346.708 62.2969 346.247 62.2388V63.8076L346.353 63.8315C347.231 64.0435 347.724 64.4058 347.724 65.127V65.1304C347.724 65.9507 347.05 66.4121 346.247 66.4736V67.0479H345.837ZM345.044 62.9771C345.044 63.312 345.252 63.5649 345.837 63.7085V62.2388C345.317 62.3105 345.044 62.6421 345.044 62.9736V62.9771ZM346.268 64.3921L346.247 64.3887V65.9404C346.883 65.8892 347.129 65.5645 347.129 65.168V65.1646C347.129 64.792 346.941 64.5562 346.268 64.3921ZM349.819 66.5522V62.2729H349.805L348.5 63.1821V62.5635L349.812 61.6201H350.414V66.5522H349.819ZM353.36 66.6343C352.417 66.6343 351.743 66.0464 351.671 65.2432L351.668 65.2056H352.273L352.276 65.2329C352.338 65.7217 352.775 66.0942 353.367 66.0942C354.037 66.0942 354.501 65.6294 354.501 64.9663V64.9595C354.498 64.3101 354.03 63.8452 353.377 63.8452C353.042 63.8452 352.755 63.9443 352.536 64.1426C352.447 64.2246 352.369 64.3203 352.304 64.4331H351.76L352.013 61.6201H354.836V62.167H352.519L352.352 63.8247H352.365C352.598 63.4932 353.008 63.3154 353.486 63.3154C354.433 63.3154 355.117 64.0024 355.117 64.9492V64.9561C355.113 65.9438 354.385 66.6343 353.36 66.6343ZM355.793 66.5522V61.6201H356.388V64.5664H356.402L357.96 62.9976H358.682L357.14 64.5322L358.729 66.5522H358.039L356.72 64.8945L356.388 65.2124V66.5522H355.793Z" fill="#818181"/>
<path d="M345.837 83.7643V83.1866C345.027 83.1149 344.384 82.6295 344.33 81.8673L344.326 81.8195H344.921L344.928 81.8605C344.996 82.2535 345.249 82.5851 345.837 82.65V81.006L345.758 80.9855C344.907 80.7804 344.449 80.401 344.449 79.7242V79.7208C344.449 78.9894 345.03 78.4938 345.837 78.4186V77.8409H346.247V78.4152C347.033 78.4869 347.625 78.9894 347.672 79.7072L347.676 79.7584H347.081L347.078 79.7277C347.03 79.297 346.708 79.0133 346.247 78.9552V80.524L346.353 80.548C347.231 80.7599 347.724 81.1222 347.724 81.8434V81.8468C347.724 82.6671 347.05 83.1285 346.247 83.1901V83.7643H345.837ZM345.044 79.6935C345.044 80.0284 345.252 80.2814 345.837 80.4249V78.9552C345.317 79.027 345.044 79.3585 345.044 79.6901V79.6935ZM346.268 81.1085L346.247 81.1051V82.6569C346.883 82.6056 347.129 82.2809 347.129 81.8844V81.881C347.129 81.5084 346.941 81.2726 346.268 81.1085ZM349.819 83.2687V78.9894H349.805L348.5 79.8986V79.2799L349.812 78.3365H350.414V83.2687H349.819ZM353.384 83.3507C352.249 83.3507 351.576 82.3698 351.576 80.8043V80.7975C351.576 79.2321 352.249 78.2545 353.384 78.2545C354.519 78.2545 355.199 79.2321 355.199 80.7975V80.8043C355.199 82.3698 354.519 83.3507 353.384 83.3507ZM353.384 82.8141C354.136 82.8141 354.58 82.0416 354.58 80.8043V80.7975C354.58 79.5602 354.136 78.7946 353.384 78.7946C352.632 78.7946 352.194 79.5602 352.194 80.7975V80.8043C352.194 82.0416 352.632 82.8141 353.384 82.8141ZM355.944 83.2687V78.3365H356.539V81.2828H356.552L358.111 79.714H358.832L357.291 81.2487L358.88 83.2687H358.189L356.87 81.611L356.539 81.9288V83.2687H355.944Z" fill="#818181"/>
<path d="M345.837 100.481V99.9031C345.027 99.8313 344.384 99.3459 344.33 98.5837L344.326 98.5359H344.921L344.928 98.5769C344.996 98.97 345.249 99.3015 345.837 99.3665V97.7224L345.758 97.7019C344.907 97.4968 344.449 97.1174 344.449 96.4407V96.4373C344.449 95.7058 345.03 95.2102 345.837 95.135V94.5574H346.247V95.1316C347.033 95.2034 347.625 95.7058 347.672 96.4236L347.676 96.4749H347.081L347.078 96.4441C347.03 96.0134 346.708 95.7297 346.247 95.6716V97.2405L346.353 97.2644C347.231 97.4763 347.724 97.8386 347.724 98.5598V98.5632C347.724 99.3835 347.05 99.845 346.247 99.9065V100.481H345.837ZM345.044 96.4099C345.044 96.7449 345.252 96.9978 345.837 97.1414V95.6716C345.317 95.7434 345.044 96.075 345.044 96.4065V96.4099ZM346.268 97.825L346.247 97.8215V99.3733C346.883 99.322 347.129 98.9973 347.129 98.6008V98.5974C347.129 98.2249 346.941 97.989 346.268 97.825ZM350.256 100.067C349.313 100.067 348.64 99.4792 348.568 98.676L348.564 98.6384H349.169L349.173 98.6658C349.234 99.1545 349.672 99.5271 350.263 99.5271C350.933 99.5271 351.398 99.0623 351.398 98.3992V98.3923C351.395 97.7429 350.926 97.2781 350.273 97.2781C349.938 97.2781 349.651 97.3772 349.433 97.5754C349.344 97.6575 349.265 97.7532 349.2 97.866H348.657L348.91 95.053H351.733V95.5999H349.416L349.248 97.2576H349.262C349.494 96.926 349.904 96.7483 350.383 96.7483C351.33 96.7483 352.013 97.4353 352.013 98.3821V98.3889C352.01 99.3767 351.282 100.067 350.256 100.067ZM352.69 99.9851V95.053H353.285V97.9993H353.298L354.857 96.4304H355.578L354.037 97.9651L355.626 99.9851H354.936L353.616 98.3274L353.285 98.6453V99.9851H352.69Z" fill="#818181"/>
<path d="M345.837 117.197V116.62C345.027 116.548 344.384 116.062 344.33 115.3L344.326 115.252H344.921L344.928 115.293C344.996 115.686 345.249 116.018 345.837 116.083V114.439L345.758 114.418C344.907 114.213 344.449 113.834 344.449 113.157V113.154C344.449 112.422 345.03 111.927 345.837 111.851V111.274H346.247V111.848C347.033 111.92 347.625 112.422 347.672 113.14L347.676 113.191H347.081L347.078 113.161C347.03 112.73 346.708 112.446 346.247 112.388V113.957L346.353 113.981C347.231 114.193 347.724 114.555 347.724 115.276V115.28C347.724 116.1 347.05 116.561 346.247 116.623V117.197H345.837ZM345.044 113.126C345.044 113.461 345.252 113.714 345.837 113.858V112.388C345.317 112.46 345.044 112.791 345.044 113.123V113.126ZM346.268 114.541L346.247 114.538V116.09C346.883 116.038 347.129 115.714 347.129 115.317V115.314C347.129 114.941 346.941 114.705 346.268 114.541ZM350.28 116.784C349.146 116.784 348.472 115.803 348.472 114.237V114.23C348.472 112.665 349.146 111.687 350.28 111.687C351.415 111.687 352.095 112.665 352.095 114.23V114.237C352.095 115.803 351.415 116.784 350.28 116.784ZM350.28 116.247C351.032 116.247 351.477 115.474 351.477 114.237V114.23C351.477 112.993 351.032 112.227 350.28 112.227C349.528 112.227 349.091 112.993 349.091 114.23V114.237C349.091 115.474 349.528 116.247 350.28 116.247ZM352.84 116.702V111.769H353.435V114.716H353.449L355.007 113.147H355.729L354.187 114.682L355.776 116.702H355.086L353.767 115.044L353.435 115.362V116.702H352.84Z" fill="#818181"/>
<path d="M16.1924 31.8748V22.0105H19.8906C21.791 22.0105 23.0352 23.1726 23.0352 24.95V24.9636C23.0352 26.3308 22.2832 27.3904 21.0527 27.78L23.3359 31.8748H21.8936L19.7812 27.9714H17.4229V31.8748H16.1924ZM17.4229 26.8845H19.7812C21.0459 26.8845 21.7637 26.2009 21.7637 24.991V24.9773C21.7637 23.8015 20.9912 23.1042 19.7266 23.1042H17.4229V26.8845ZM27.3281 32.0115C25.2842 32.0115 24.0537 30.5828 24.0537 28.3474V28.3406C24.0537 26.1394 25.3115 24.6287 27.2529 24.6287C29.1943 24.6287 30.377 26.071 30.377 28.2039V28.6414H25.2568C25.2842 30.1042 26.0908 30.9587 27.3555 30.9587C28.2578 30.9587 28.8936 30.5076 29.0986 29.8992L29.1191 29.8376H30.2881L30.2744 29.906C30.042 31.0818 28.8799 32.0115 27.3281 32.0115ZM27.2461 25.6814C26.2139 25.6814 25.4072 26.3855 25.2773 27.7117H29.167C29.0508 26.3308 28.2852 25.6814 27.2461 25.6814ZM33.3096 31.8748L30.6914 24.7654H31.9424L33.9043 30.6101H33.9316L35.9004 24.7654H37.1377L34.5264 31.8748H33.3096ZM40.7266 32.0115C38.6826 32.0115 37.4521 30.5828 37.4521 28.3474V28.3406C37.4521 26.1394 38.71 24.6287 40.6514 24.6287C42.5928 24.6287 43.7754 26.071 43.7754 28.2039V28.6414H38.6553C38.6826 30.1042 39.4893 30.9587 40.7539 30.9587C41.6562 30.9587 42.292 30.5076 42.4971 29.8992L42.5176 29.8376H43.6865L43.6729 29.906C43.4404 31.0818 42.2783 32.0115 40.7266 32.0115ZM40.6445 25.6814C39.6123 25.6814 38.8057 26.3855 38.6758 27.7117H42.5654C42.4492 26.3308 41.6836 25.6814 40.6445 25.6814ZM44.9785 31.8748V24.7654H46.168V25.7771H46.1953C46.5781 25.114 47.3027 24.6287 48.3828 24.6287C49.9414 24.6287 50.8438 25.6404 50.8438 27.2605V31.8748H49.6543V27.4724C49.6543 26.3171 49.1143 25.6814 48.0205 25.6814C46.8994 25.6814 46.168 26.4812 46.168 27.6912V31.8748H44.9785ZM54.7881 32.0115C53.2295 32.0115 52.3271 30.9998 52.3271 29.3796V24.7654H53.5166V29.1677C53.5166 30.323 54.0566 30.9587 55.1504 30.9587C56.2715 30.9587 57.0029 30.1589 57.0029 28.949V24.7654H58.1924V31.8748H57.0029V30.863H56.9756C56.5928 31.5261 55.8682 32.0115 54.7881 32.0115ZM62.6699 32.0115C60.626 32.0115 59.3955 30.5828 59.3955 28.3474V28.3406C59.3955 26.1394 60.6533 24.6287 62.5947 24.6287C64.5361 24.6287 65.7188 26.071 65.7188 28.2039V28.6414H60.5986C60.626 30.1042 61.4326 30.9587 62.6973 30.9587C63.5996 30.9587 64.2354 30.5076 64.4404 29.8992L64.4609 29.8376H65.6299L65.6162 29.906C65.3838 31.0818 64.2217 32.0115 62.6699 32.0115ZM62.5879 25.6814C61.5557 25.6814 60.749 26.3855 60.6191 27.7117H64.5088C64.3926 26.3308 63.627 25.6814 62.5879 25.6814ZM69.834 28.4294V27.322H74.209V28.4294H69.834ZM83.3828 31.8748V29.824H78.4268V28.7097L82.7539 22.0105H84.5723V28.7439H85.9668V29.824H84.5723V31.8748H83.3828ZM79.6436 28.7439H83.3828V23.0632H83.3418L79.6436 28.7166V28.7439ZM90.5947 32.0388C88.3252 32.0388 86.9785 30.0769 86.9785 26.946V26.9324C86.9785 23.8015 88.3252 21.8464 90.5947 21.8464C92.8643 21.8464 94.2246 23.8015 94.2246 26.9324V26.946C94.2246 30.0769 92.8643 32.0388 90.5947 32.0388ZM90.5947 30.9656C92.0986 30.9656 92.9873 29.4207 92.9873 26.946V26.9324C92.9873 24.4578 92.0986 22.9265 90.5947 22.9265C89.0908 22.9265 88.2158 24.4578 88.2158 26.9324V26.946C88.2158 29.4207 89.0908 30.9656 90.5947 30.9656ZM99.1191 21.8464C100.938 21.8464 102.865 23.1042 102.865 26.7615V26.7751C102.865 30.0974 101.45 32.0388 99.0371 32.0388C97.3623 32.0388 96.1113 31.0818 95.7832 29.6462L95.7627 29.5574H97.0137L97.041 29.6326C97.335 30.446 98.0391 30.9519 99.0508 30.9519C100.89 30.9519 101.614 29.1677 101.669 27.0964C101.676 27.0281 101.676 26.9597 101.676 26.8845H101.648C101.252 27.7595 100.24 28.4705 98.9004 28.4705C97.0205 28.4705 95.626 27.0828 95.626 25.2097V25.196C95.626 23.2546 97.1025 21.8464 99.1191 21.8464ZM99.1123 27.3904C100.404 27.3904 101.382 26.4744 101.382 25.2166V25.2097C101.382 23.9451 100.397 22.9402 99.1328 22.9402C97.875 22.9402 96.877 23.9246 96.877 25.1687V25.1824C96.877 26.4675 97.8135 27.3904 99.1123 27.3904ZM104.718 31.9705C104.28 31.9705 103.938 31.6287 103.938 31.1912C103.938 30.7537 104.28 30.4119 104.718 30.4119C105.155 30.4119 105.497 30.7537 105.497 31.1912C105.497 31.6287 105.155 31.9705 104.718 31.9705ZM110.289 32.0388C108.252 32.0388 106.933 30.9041 106.803 29.3455L106.796 29.2634H107.979L107.985 29.3318C108.088 30.3025 108.977 30.9724 110.289 30.9724C111.581 30.9724 112.463 30.2478 112.463 29.2019V29.1882C112.463 27.9783 111.595 27.3015 110.214 27.3015H108.977V26.2625H110.159C111.335 26.2625 112.155 25.5378 112.155 24.5535V24.5398C112.155 23.5076 111.479 22.9128 110.275 22.9128C109.113 22.9128 108.286 23.5281 108.184 24.5261L108.177 24.5945H106.994L107.001 24.5261C107.158 22.9197 108.43 21.8464 110.275 21.8464C112.155 21.8464 113.393 22.8923 113.393 24.3894V24.4031C113.393 25.6199 112.531 26.4539 111.301 26.7136V26.741C112.736 26.864 113.714 27.7595 113.714 29.1609V29.1746C113.714 30.822 112.265 32.0388 110.289 32.0388ZM115.32 31.8748V22.0105H116.51V27.9031H116.537L119.654 24.7654H121.097L118.014 27.8347L121.192 31.8748H119.812L117.173 28.5593L116.51 29.1951V31.8748H115.32Z" fill="#818181"/>
<path d="M130.831 32.0746V27.1425H131.446V31.5209H133.825V32.0746H130.831ZM135.449 32.1429C134.741 32.1429 134.266 31.7157 134.266 31.0697V31.0629C134.266 30.4579 134.738 30.0785 135.555 30.0306L136.573 29.9725V29.6752C136.573 29.2411 136.29 28.9779 135.794 28.9779C135.336 28.9779 135.049 29.1967 134.98 29.5145L134.974 29.5453H134.399L134.403 29.5077C134.454 28.9232 134.963 28.4515 135.801 28.4515C136.642 28.4515 137.168 28.9061 137.168 29.6171V32.0746H136.573V31.4969H136.56C136.351 31.8866 135.924 32.1429 135.449 32.1429ZM134.875 31.0697C134.875 31.4115 135.155 31.6268 135.582 31.6268C136.143 31.6268 136.573 31.2406 136.573 30.7245V30.434L135.623 30.4921C135.148 30.5194 134.875 30.7313 134.875 31.0629V31.0697ZM139.185 32.1429C138.347 32.1429 137.841 31.7157 137.77 31.08L137.766 31.0492H138.361L138.368 31.0834C138.439 31.4388 138.703 31.6473 139.188 31.6473C139.67 31.6473 139.957 31.4457 139.957 31.1244V31.121C139.957 30.8646 139.824 30.7211 139.42 30.6219L138.856 30.4852C138.187 30.3246 137.862 30.0135 137.862 29.5009V29.4974C137.862 28.8856 138.398 28.4515 139.167 28.4515C139.947 28.4515 140.442 28.9061 140.487 29.5009L140.49 29.5453H139.923L139.919 29.5214C139.872 29.1761 139.608 28.9471 139.167 28.9471C138.737 28.9471 138.47 29.1556 138.47 29.4701V29.4735C138.47 29.7162 138.631 29.8837 139.024 29.9794L139.588 30.1161C140.306 30.2904 140.565 30.5741 140.565 31.08V31.0834C140.565 31.7054 139.978 32.1429 139.185 32.1429ZM142.339 32.1429C141.687 32.1429 141.365 31.849 141.365 31.1688V29.0121H140.846V28.5199H141.365V27.5594H141.98V28.5199H142.657V29.0121H141.98V31.1654C141.98 31.5448 142.148 31.6508 142.466 31.6508C142.538 31.6508 142.606 31.6405 142.657 31.6371V32.119C142.582 32.1293 142.456 32.1429 142.339 32.1429ZM146.407 32.1566C145.388 32.1566 144.729 31.5892 144.664 30.8099L144.66 30.7689H145.251L145.255 30.8031C145.306 31.2885 145.75 31.6234 146.407 31.6234C147.053 31.6234 147.494 31.2611 147.494 30.7382V30.7313C147.494 30.1263 147.06 29.788 146.369 29.788H145.75V29.2684H146.342C146.93 29.2684 147.34 28.9061 147.34 28.4139V28.4071C147.34 27.891 147.001 27.5936 146.4 27.5936C145.819 27.5936 145.405 27.9012 145.354 28.4003L145.351 28.4344H144.759L144.763 28.4003C144.841 27.597 145.477 27.0604 146.4 27.0604C147.34 27.0604 147.958 27.5834 147.958 28.3319V28.3387C147.958 28.9471 147.528 29.3641 146.913 29.494V29.5077C147.63 29.5692 148.119 30.017 148.119 30.7177V30.7245C148.119 31.5482 147.395 32.1566 146.407 32.1566ZM150.607 32.1566C149.473 32.1566 148.799 31.1757 148.799 29.6102V29.6034C148.799 28.038 149.473 27.0604 150.607 27.0604C151.742 27.0604 152.422 28.038 152.422 29.6034V29.6102C152.422 31.1757 151.742 32.1566 150.607 32.1566ZM150.607 31.62C151.359 31.62 151.804 30.8475 151.804 29.6102V29.6034C151.804 28.3661 151.359 27.6005 150.607 27.6005C149.855 27.6005 149.418 28.3661 149.418 29.6034V29.6102C149.418 30.8475 149.855 31.62 150.607 31.62ZM155.892 32.1429C154.982 32.1429 154.381 31.4183 154.381 30.2972V30.2938C154.381 29.1727 154.989 28.4515 155.881 28.4515C156.384 28.4515 156.797 28.7045 157.02 29.1146H157.033V27.1425H157.628V32.0746H157.033V31.473H157.02C156.797 31.8866 156.401 32.1429 155.892 32.1429ZM156.008 31.6166C156.609 31.6166 157.037 31.0936 157.037 30.2972V30.2938C157.037 29.5009 156.606 28.9779 156.008 28.9779C155.379 28.9779 154.989 29.4838 154.989 30.2938V30.2972C154.989 31.1141 155.379 31.6166 156.008 31.6166ZM159.47 32.1429C158.763 32.1429 158.288 31.7157 158.288 31.0697V31.0629C158.288 30.4579 158.759 30.0785 159.576 30.0306L160.595 29.9725V29.6752C160.595 29.2411 160.311 28.9779 159.815 28.9779C159.357 28.9779 159.07 29.1967 159.002 29.5145L158.995 29.5453H158.421L158.424 29.5077C158.476 28.9232 158.985 28.4515 159.822 28.4515C160.663 28.4515 161.189 28.9061 161.189 29.6171V32.0746H160.595V31.4969H160.581C160.373 31.8866 159.945 32.1429 159.47 32.1429ZM158.896 31.0697C158.896 31.4115 159.176 31.6268 159.604 31.6268C160.164 31.6268 160.595 31.2406 160.595 30.7245V30.434L159.645 30.4921C159.169 30.5194 158.896 30.7313 158.896 31.0629V31.0697ZM162.287 33.2709C162.17 33.2709 162.044 33.2572 161.969 33.2435V32.7582C162.02 32.7684 162.088 32.7787 162.16 32.7787C162.536 32.7787 162.745 32.683 162.888 32.2797L162.96 32.078L161.641 28.5199H162.276L163.257 31.4799H163.271L164.255 28.5199H164.881L163.493 32.2968C163.24 32.9769 162.929 33.2709 162.287 33.2709ZM166.61 32.1429C165.773 32.1429 165.267 31.7157 165.195 31.08L165.192 31.0492H165.787L165.793 31.0834C165.865 31.4388 166.128 31.6473 166.614 31.6473C167.096 31.6473 167.383 31.4457 167.383 31.1244V31.121C167.383 30.8646 167.25 30.7211 166.846 30.6219L166.282 30.4852C165.612 30.3246 165.288 30.0135 165.288 29.5009V29.4974C165.288 28.8856 165.824 28.4515 166.593 28.4515C167.373 28.4515 167.868 28.9061 167.913 29.5009L167.916 29.5453H167.349L167.345 29.5214C167.297 29.1761 167.034 28.9471 166.593 28.9471C166.163 28.9471 165.896 29.1556 165.896 29.4701V29.4735C165.896 29.7162 166.057 29.8837 166.45 29.9794L167.014 30.1161C167.731 30.2904 167.991 30.5741 167.991 31.08V31.0834C167.991 31.7054 167.403 32.1429 166.61 32.1429Z" fill="#818181"/>
<rect x="13.9873" y="45.9701" width="321.92" height="1.04478" fill="#D9D9D9" fill-opacity="0.12"/>
<rect x="13.0352" y="62.6865" width="321.92" height="1.04478" fill="#D9D9D9" fill-opacity="0.12"/>
<rect x="13.9873" y="79.403" width="321.92" height="1.04478" fill="#D9D9D9" fill-opacity="0.12"/>
<rect x="13.9873" y="96.1194" width="321.92" height="1.04478" fill="#D9D9D9" fill-opacity="0.12"/>
<rect x="13.9873" y="112.836" width="321.92" height="1.04478" fill="#D9D9D9" fill-opacity="0.12"/>
<path d="M25.3965 66.8662L14.0381 79.9254V113.358L328.889 112.836H334.404H334.905V104.478V96.6418V79.9254V69.4776L332.399 70L327.138 71.713C325.305 72.3097 323.559 73.1447 321.944 74.1965L318.878 76.1927C317.204 77.283 315.686 78.5964 314.366 80.0966L311.949 82.844C311.211 83.6831 310.538 84.5773 309.935 85.5187L307.963 88.6017C306.55 90.8097 304.754 92.7474 302.66 94.3235L296.802 98.7314C292.327 102.773 285.747 103.44 280.551 100.38L280.163 100.152C278.57 99.2137 277.172 97.9774 276.046 96.5106L273.768 93.5433C272.42 91.7882 271.345 89.8398 270.579 87.7639L269.228 84.1045L267.473 77.1576C266.975 75.186 266.149 73.3123 265.029 71.615L259.185 62.7574C257.219 59.778 253.28 58.8333 250.176 60.597L247.642 61.9175C245.996 62.775 244.248 63.4208 242.44 63.8395L231.626 66.3433L226.246 67.7447C224.512 68.1964 222.693 68.2095 220.953 67.7828L219.876 67.5187C216.897 66.7884 214.512 64.5628 213.577 61.6418L211.071 54.8508L210.389 52.9576C209.09 49.3476 205.17 47.4098 201.513 48.5695C198.547 49.5102 196.531 52.2636 196.531 55.3754V58.5075V62.6838C196.531 64.0756 196.399 65.4642 196.137 66.8309L195.424 70.5448C195.16 71.9198 194.766 73.2664 194.246 74.5664L192.52 78.8806L191.947 80.6739C191.003 83.6242 189.447 86.3419 187.38 88.6492L186.064 90.1182C184.368 92.0114 182.32 93.5567 180.035 94.6682C177.364 95.9669 174.432 96.6418 171.462 96.6418H169.683C166.571 96.6418 163.505 95.8911 160.745 94.4533L160.601 94.3784C158.83 93.4557 157.222 92.2502 155.839 90.8094C153.28 88.143 151.585 84.7662 150.977 81.1209L149.905 74.7015L148.768 66.0102C148.533 64.2179 147.59 62.5944 146.15 61.5027L144.14 59.9799C141.041 57.6319 136.556 59.3827 135.867 63.209L134.77 68.3532C134.171 71.1651 133.025 73.8322 131.4 76.2036L130.195 77.9607C129.3 79.2659 128.255 80.4612 127.08 81.5219C123.378 84.8655 118.566 86.7164 113.577 86.7164H110.298L101.325 87.5664C99.9571 87.696 98.6039 87.9535 97.2837 88.3357L93.7128 89.3692C91.4157 90.034 89.2423 91.069 87.2782 92.4333L81.2197 96.6418L72.3591 101.258C67.108 103.994 60.6419 102.396 57.2688 97.5299C56.8593 96.9391 56.5049 96.3119 56.2099 95.6564L49.1329 79.9254L42.6683 68.5809C40.7758 65.2596 37.247 63.209 33.4243 63.209C30.3453 63.209 27.4172 64.5429 25.3965 66.8662Z" fill="url(#paint0_linear_130_172)" fill-opacity="0.57"/>
<path d="M14.5391 79.9254L25.4201 66.9682C27.4214 64.5851 30.374 63.209 33.486 63.209V63.209C37.2702 63.209 40.7636 65.2391 42.6372 68.527L49.1326 79.9254L56.2096 95.6564C56.5045 96.3119 56.8589 96.9391 57.2685 97.5299V97.5299C60.6415 102.396 67.1077 103.994 72.3587 101.258L81.2193 96.6418L87.2779 92.4333C89.2419 91.069 91.4153 90.034 93.7124 89.3692L97.2833 88.3357C98.6036 87.9535 99.9567 87.696 101.325 87.5664L110.298 86.7164H113.577C118.566 86.7164 123.377 84.8655 127.08 81.5219V81.5219C128.255 80.4612 129.3 79.2659 130.195 77.9607L131.399 76.2036C133.025 73.8322 134.17 71.1651 134.77 68.3532L135.867 63.209V63.209C136.556 59.3827 141.041 57.6319 144.14 59.9799L146.149 61.5027C147.59 62.5944 148.533 64.2179 148.767 66.0102L149.905 74.7015L150.976 81.1209C151.585 84.7662 153.279 88.143 155.838 90.8094V90.8094C157.221 92.2502 158.83 93.4557 160.601 94.3784L160.745 94.4533C163.505 95.8911 166.57 96.6418 169.682 96.6418H171.462C174.432 96.6418 177.363 95.9669 180.034 94.6682V94.6682C182.32 93.5567 184.368 92.0114 186.064 90.1182L187.38 88.6492C189.446 86.3419 191.003 83.6242 191.946 80.6739L192.52 78.8806L194.245 74.5664C194.765 73.2664 195.16 71.9198 195.424 70.5448L196.137 66.8309C196.399 65.4642 196.531 64.0756 196.531 62.6838V58.5075V55.3754C196.531 52.2636 198.546 49.5102 201.513 48.5695V48.5695C205.17 47.4098 209.09 49.3476 210.389 52.9576L211.07 54.8508L213.577 61.6418V61.6418C214.511 64.5628 216.897 66.7884 219.875 67.5187L220.953 67.7828C222.693 68.2095 224.512 68.1964 226.246 67.7447L231.626 66.3433L242.439 63.8395C244.247 63.4208 245.995 62.775 247.641 61.9175L250.176 60.597V60.597C253.279 58.8333 257.218 59.778 259.184 62.7574L265.029 71.615C266.149 73.3123 266.975 75.186 267.473 77.1576L269.227 84.1045L270.578 87.7639C271.344 89.8398 272.42 91.7882 273.767 93.5433L276.045 96.5106C277.172 97.9774 278.57 99.2137 280.163 100.152L280.55 100.38C285.746 103.44 292.327 102.773 296.802 98.7314V98.7314L302.659 94.3235C304.754 92.7474 306.55 90.8097 307.962 88.6017L309.935 85.5187C310.537 84.5773 311.211 83.6831 311.949 82.844L314.366 80.0966C315.686 78.5964 317.204 77.283 318.878 76.1927L321.943 74.1965C323.558 73.1447 325.305 72.3097 327.137 71.713L332.398 70L333.902 69.4776" stroke="#FF4A4A" stroke-width="2" stroke-linecap="round"/>
<defs>
<linearGradient id="paint0_linear_130_172" x1="174.472" y1="46.4926" x2="174.472" y2="113.358" gradientUnits="userSpaceOnUse">
<stop offset="0.475" stop-color="#FF4A4A"/>
<stop offset="1" stop-color="#4E4B4B"/>
</linearGradient>
</defs>
</svg>
